<svg height="512" viewBox="0 0 128 128" width="512" xmlns="http://www.w3.org/2000/svg"><g id="Circle_Grid" data-name="Circle Grid"><circle cx="64" cy="64" fill="#2cbfae" r="64"/></g><g id="icon"><path d="m55.83 24h16.34a2.131 2.131 0 0 1 2.13 2.131v7.144a0 0 0 0 1 0 0h-20.6a0 0 0 0 1 0 0v-7.144a2.131 2.131 0 0 1 2.13-2.131z" fill="#dbd8dd"/><rect fill="#eeefee" height="73.021" rx="2.842" width="47.366" x="40.317" y="30.979"/><g fill="#ef5261"><path d="m43.692 89.187h40.617v10.6h-40.617z"/><path d="m43.692 75.688h40.617v10.6h-40.617z"/><path d="m43.692 62.19h40.617v10.6h-40.617z"/><path d="m43.692 48.691h40.617v10.6h-40.617z"/></g><path d="m43.692 35.192h40.617v10.6h-40.617z" fill="#dbd8dd"/></g></svg>